<svg viewBox="0 0 680 300" xmlns="http://www.w3.org/2000/svg" width="100%">

  <!-- Kitchen wall – warm cream with subtle tile lines -->
  <rect x="0" y="0" width="680" height="200" fill="#FEF3DC"/>
  <line x1="0" y1="67" x2="680" y2="67" stroke="#EDE0C4" stroke-width="0.8"/>
  <line x1="0" y1="134" x2="680" y2="134" stroke="#EDE0C4" stroke-width="0.8"/>
  <line x1="113" y1="0" x2="113" y2="200" stroke="#EDE0C4" stroke-width="0.5"/>
  <line x1="226" y1="0" x2="226" y2="200" stroke="#EDE0C4" stroke-width="0.5"/>
  <line x1="340" y1="0" x2="340" y2="200" stroke="#EDE0C4" stroke-width="0.5"/>
  <line x1="453" y1="0" x2="453" y2="200" stroke="#EDE0C4" stroke-width="0.5"/>
  <line x1="567" y1="0" x2="567" y2="200" stroke="#EDE0C4" stroke-width="0.5"/>

  <!-- Counter top edge and surface -->
  <rect x="0" y="197" width="680" height="13" fill="#D4A870"/>
  <rect x="0" y="210" width="680" height="90" fill="#C09060"/>
  <line x1="0" y1="228" x2="680" y2="225" stroke="#A07840" stroke-width="0.8" opacity="0.4"/>
  <line x1="0" y1="252" x2="680" y2="249" stroke="#A07840" stroke-width="0.8" opacity="0.35"/>
  <line x1="0" y1="272" x2="680" y2="275" stroke="#A07840" stroke-width="0.8" opacity="0.3"/>

  <!-- LEFT – leaf 1 behind whole lemon -->
  <path d="M 55 186 Q 22 154 38 114 Q 62 152 73 182 Z" fill="#5A8A3C"/>
  <path d="M 55 186 Q 40 152 42 120" stroke="#4A7A2C" stroke-width="0.8" fill="none"/>

  <!-- Whole lemon 1 -->
  <ellipse cx="88" cy="181" rx="52" ry="35" fill="#C8A010"/>
  <ellipse cx="88" cy="179" rx="50" ry="33" fill="#F9DB6D"/>
  <ellipse cx="136" cy="179" rx="8" ry="5" fill="#D4B020"/>
  <ellipse cx="40" cy="179" rx="7" ry="5" fill="#D4B020"/>
  <ellipse cx="74" cy="168" rx="18" ry="10" fill="#FFF8C0" opacity="0.5"/>

  <!-- Leaf 2 -->
  <path d="M 145 184 Q 172 158 190 167 Q 171 183 148 188 Z" fill="#6BA040"/>
  <path d="M 145 184 Q 170 160 188 168" stroke="#5A8A30" stroke-width="0.8" fill="none"/>

  <!-- Whole lemon 2 -->
  <ellipse cx="225" cy="189" rx="45" ry="30" fill="#C8A010"/>
  <ellipse cx="225" cy="187" rx="43" ry="28" fill="#F4C830"/>
  <ellipse cx="266" cy="187" rx="7" ry="4" fill="#D4B020"/>
  <ellipse cx="184" cy="187" rx="7" ry="4" fill="#D4B020"/>
  <ellipse cx="212" cy="178" rx="14" ry="8" fill="#FFF8C0" opacity="0.45"/>

  <!-- CENTER – mason jar shadow -->
  <ellipse cx="320" cy="200" rx="48" ry="5" fill="#7A5030" opacity="0.18"/>

  <!-- Jar glass body -->
  <rect x="278" y="72" width="84" height="128" rx="10" fill="#CCEEFF" opacity="0.5" stroke="#A0C8E8" stroke-width="1.5"/>

  <!-- Lemonade liquid -->
  <rect x="280" y="138" width="80" height="60" fill="#F9E04B" opacity="0.58"/>
  <path d="M280 138 Q300 134 320 138 Q340 134 360 138" stroke="#E8D030" stroke-width="1" fill="none" opacity="0.7"/>

  <!-- Floating lemon slice inside jar -->
  <circle cx="312" cy="163" r="15" fill="#D4AA20" opacity="0.8"/>
  <circle cx="312" cy="163" r="12" fill="#FFFDE7" opacity="0.9"/>
  <line x1="312" y1="151" x2="312" y2="175" stroke="#C8A010" stroke-width="0.5" opacity="0.7"/>
  <line x1="300" y1="163" x2="324" y2="163" stroke="#C8A010" stroke-width="0.5" opacity="0.7"/>
  <line x1="304" y1="155" x2="320" y2="171" stroke="#C8A010" stroke-width="0.4" opacity="0.6"/>
  <line x1="320" y1="155" x2="304" y2="171" stroke="#C8A010" stroke-width="0.4" opacity="0.6"/>
  <circle cx="312" cy="163" r="3" fill="#F4D03F" opacity="0.85"/>

  <!-- Jar screw band -->
  <rect x="270" y="63" width="100" height="14" rx="4" fill="#B08830" stroke="#9A7420" stroke-width="1"/>
  <!-- Jar lid -->
  <rect x="273" y="55" width="94" height="12" rx="3" fill="#C8A040"/>
  <rect x="280" y="57" width="32" height="4" rx="2" fill="#DCC060" opacity="0.6"/>

  <!-- Glass shine -->
  <rect x="286" y="78" width="7" height="52" rx="3.5" fill="white" opacity="0.2"/>
  <rect x="295" y="78" width="3" height="30" rx="1.5" fill="white" opacity="0.1"/>

  <!-- RIGHT – cutting board -->
  <rect x="395" y="193" width="175" height="13" rx="4" fill="#9A7040"/>
  <rect x="398" y="193" width="169" height="10" rx="3" fill="#B08858"/>
  <line x1="413" y1="193" x2="413" y2="203" stroke="#9A6830" stroke-width="0.6" opacity="0.5"/>
  <line x1="430" y1="193" x2="430" y2="203" stroke="#9A6830" stroke-width="0.6" opacity="0.5"/>
  <line x1="447" y1="193" x2="447" y2="203" stroke="#9A6830" stroke-width="0.6" opacity="0.5"/>
  <line x1="464" y1="193" x2="464" y2="203" stroke="#9A6830" stroke-width="0.6" opacity="0.5"/>
  <line x1="481" y1="193" x2="481" y2="203" stroke="#9A6830" stroke-width="0.6" opacity="0.5"/>
  <line x1="498" y1="193" x2="498" y2="203" stroke="#9A6830" stroke-width="0.6" opacity="0.5"/>
  <line x1="515" y1="193" x2="515" y2="203" stroke="#9A6830" stroke-width="0.6" opacity="0.5"/>
  <line x1="532" y1="193" x2="532" y2="203" stroke="#9A6830" stroke-width="0.6" opacity="0.5"/>
  <line x1="549" y1="193" x2="549" y2="203" stroke="#9A6830" stroke-width="0.6" opacity="0.5"/>
  <line x1="557" y1="193" x2="557" y2="203" stroke="#9A6830" stroke-width="0.6" opacity="0.5"/>

  <!-- Cut lemon half 1 (face up) cx=445, cy=182, r=22, pith r=18 -->
  <!-- Points: top(445,160) top-rt(460.6,171) bot-rt(460.6,193) bot(445,204) bot-lt(429.4,193) top-lt(429.4,171) -->
  <circle cx="445" cy="182" r="26" fill="#C8A010"/>
  <circle cx="445" cy="182" r="22" fill="#FFFDE7"/>
  <path d="M445 182 L445 160 A22 22 0 0 1 464 171 Z" fill="#F9DB6D"/>
  <path d="M445 182 L464 171 A22 22 0 0 1 464 193 Z" fill="#F0C830"/>
  <path d="M445 182 L464 193 A22 22 0 0 1 445 204 Z" fill="#F9DB6D"/>
  <path d="M445 182 L445 204 A22 22 0 0 1 426 193 Z" fill="#F0C830"/>
  <path d="M445 182 L426 193 A22 22 0 0 1 426 171 Z" fill="#F9DB6D"/>
  <path d="M445 182 L426 171 A22 22 0 0 1 445 160 Z" fill="#F0C830"/>
  <line x1="445" y1="182" x2="445" y2="160" stroke="#C0A010" stroke-width="0.5" opacity="0.7"/>
  <line x1="445" y1="182" x2="464" y2="171" stroke="#C0A010" stroke-width="0.5" opacity="0.7"/>
  <line x1="445" y1="182" x2="464" y2="193" stroke="#C0A010" stroke-width="0.5" opacity="0.7"/>
  <line x1="445" y1="182" x2="445" y2="204" stroke="#C0A010" stroke-width="0.5" opacity="0.7"/>
  <line x1="445" y1="182" x2="426" y2="193" stroke="#C0A010" stroke-width="0.5" opacity="0.7"/>
  <line x1="445" y1="182" x2="426" y2="171" stroke="#C0A010" stroke-width="0.5" opacity="0.7"/>
  <circle cx="445" cy="182" r="22" fill="none" stroke="#C8A010" stroke-width="1.5"/>
  <circle cx="445" cy="182" r="3" fill="#F4D03F"/>

  <!-- Cut lemon half 2 (slightly rotated) cx=528, cy=182 -->
  <g transform="translate(528 182) rotate(-22)">
    <circle cx="0" cy="0" r="24" fill="#C8A010"/>
    <circle cx="0" cy="0" r="20" fill="#FFFDE7"/>
    <path d="M0 0 L0 -20 A20 20 0 0 1 17.3 -10 Z" fill="#F9DB6D"/>
    <path d="M0 0 L17.3 -10 A20 20 0 0 1 17.3 10 Z" fill="#F0C830"/>
    <path d="M0 0 L17.3 10 A20 20 0 0 1 0 20 Z" fill="#F9DB6D"/>
    <path d="M0 0 L0 20 A20 20 0 0 1 -17.3 10 Z" fill="#F0C830"/>
    <path d="M0 0 L-17.3 10 A20 20 0 0 1 -17.3 -10 Z" fill="#F9DB6D"/>
    <path d="M0 0 L-17.3 -10 A20 20 0 0 1 0 -20 Z" fill="#F0C830"/>
    <circle cx="0" cy="0" r="20" fill="none" stroke="#C8A010" stroke-width="1.5"/>
    <circle cx="0" cy="0" r="3" fill="#F4D03F"/>
  </g>

  <!-- Whole lemon 3 (far right) with leaf -->
  <path d="M 592 182 Q 608 162 620 170 Q 605 181 593 185 Z" fill="#5A8A3C" opacity="0.85"/>
  <ellipse cx="625" cy="181" rx="45" ry="31" fill="#C8A010"/>
  <ellipse cx="625" cy="179" rx="43" ry="29" fill="#F9DB6D"/>
  <ellipse cx="666" cy="179" rx="7" ry="4" fill="#D4B020"/>
  <ellipse cx="584" cy="179" rx="7" ry="4" fill="#D4B020"/>
  <ellipse cx="611" cy="169" rx="14" ry="8" fill="#FFF8C0" opacity="0.5"/>

  <!-- Scattered juice drops on counter -->
  <ellipse cx="265" cy="210" rx="3" ry="2" fill="#F9E04B" opacity="0.4"/>
  <ellipse cx="375" cy="215" rx="2.5" ry="1.5" fill="#F9E04B" opacity="0.38"/>
  <ellipse cx="252" cy="222" rx="2" ry="1.5" fill="#F9E04B" opacity="0.32"/>

  <!-- Herb sprigs -->
  <path d="M 252 202 Q 262 193 268 200 Q 261 206 252 202 Z" fill="#6BA040" opacity="0.7"/>
  <path d="M 372 204 Q 381 196 386 203 Q 379 209 372 204 Z" fill="#5A8A3C" opacity="0.65"/>

</svg>
