<svg width="1024" height="1024" viewBox="0 0 1024 1024" fill="none" xmlns="http://www.w3.org/2000/svg">
<path fill-rule="evenodd" clip-rule="evenodd" d="M185 257H101V291H126L126 513H160L160 291H185V257Z" fill="black"/>
<path fill-rule="evenodd" clip-rule="evenodd" d="M229 257H195L195 513H229H268V479H229V393H263V359H229V291H268V257H229Z" fill="black"/>
<path fill-rule="evenodd" clip-rule="evenodd" d="M415 257V359H442L442 257H476L476 513H442V393H415L415 513H381L381 257H415Z" fill="black"/>
<path fill-rule="evenodd" clip-rule="evenodd" d="M313 255H311C293.327 255 279 269.327 279 287L279 481C279 498.673 293.327 513 311 513H313H333H335C352.673 513 367 498.673 367 481L367 393H333L333 479H313V289H333V357H367L367 287C367 269.327 352.673 255 335 255H333H313Z" fill="black"/>
<path fill-rule="evenodd" clip-rule="evenodd" d="M535.676 699.811L524 513H490L510.5 769H530H540H559L569 598.333L579 769H598H608H627.5L648 513H614L602.324 699.811L587 513H574H564H551L535.676 699.811Z" fill="black"/>
<path fill-rule="evenodd" clip-rule="evenodd" d="M691 513H657L657 769H691H730V735H691V649H725V615H691V547H730V513H691Z" fill="black"/>
<path fill-rule="evenodd" clip-rule="evenodd" d="M774 513H740L740 769H774H813V735H774V649H808V615H774V547H813V513H774Z" fill="black"/>
<path fill-rule="evenodd" clip-rule="evenodd" d="M857 622V513H823L823 688V769H857V688L865.081 659.121L889 769H923L891 622L919 513H885L857 622Z" fill="black"/>
</svg>
